# xmcd
#
# Track frame offsets:
#	150
#	17365
#	26420
#	39380
#	53017
#	67575
#	81492
#	95892
#	110205
#	126160
#	136890
#	151167
#	163452
#	176660
#	190885
#	200975
#
# Disc length: 2839 seconds
#
# Revision: 0
# Processed by: cddbd v1.5.2PL0 Copyright (c) Steve Scherf et al.
# Submitted via: dBpowerAMP V4.0
#
DISCID=dd0b1510
DTITLE=Ana Gabriel y Lupita DAlessio - En el principio
DYEAR=1995
DGENRE=Country
TTITLE0=Mi corazon es un gitano LDA
TTITLE1=Mitad tu, Mitad yo AG
TTITLE2=Jardin de rosas LDA
TTITLE3=Dulce Amor AG
TTITLE4=Pon tu mano sogre mi mano AG
TTITLE5=Cerca de Ti LDA
TTITLE6=Mi vida vuelve AG
TTITLE7=Mi vida vuelve (AG)
TTITLE8=Eres Tu (LDA)
TTITLE9=Dejalos (AG)
TTITLE10=Me estas matando suavemente con tu cancion (LSA)
TTITLE11=Criminal (AG)
TTITLE12=Volvera el amor LDA)
TTITLE13=Protesta AG
TTITLE14=Entre Brumas LDA
TTITLE15=Castigo AG
EXTD=
EXTT0=
EXTT1=
EXTT2=
EXTT3=
EXTT4=
EXTT5=
EXTT6=
EXTT7=
EXTT8=
EXTT9=
EXTT10=
EXTT11=
EXTT12=
EXTT13=
EXTT14=
EXTT15=
PLAYORDER=
